<?xml version="1.0" encoding="UTF-8" standalone="no" ?>
<!DOCTYPE svg PUBLIC "-//W3C//DTD SVG 1.1//EN" "http://www.w3.org/Graphics/SVG/1.1/DTD/svg11.dtd">
<svg xmlns="http://www.w3.org/2000/svg" xmlns:xlink="http://www.w3.org/1999/xlink" version="1.1" width="1280" height="1024" viewBox="0 0 1280 1024" xml:space="preserve">
<desc>Created with Fabric.js 4.4.0</desc>
<defs>
</defs>
<g transform="matrix(1 0 0 1 640 512)" id="background-logo"  >
<rect style="stroke: none; stroke-width: 0; stroke-dasharray: none; stroke-linecap: butt; stroke-dashoffset: 0; stroke-linejoin: miter; stroke-miterlimit: 4; fill: rgb(255,255,255); fill-opacity: 0; fill-rule: nonzero; opacity: 1;"  paint-order="stroke"  x="-640" y="-512" rx="0" ry="0" width="1280" height="1024" />
</g>
<g transform="matrix(1.5716477216918856 0 0 1.5716477216918856 217.36690064794817 512.170342162101)" id="logo-logo"  >
<g style=""  paint-order="stroke"   >
		<g transform="matrix(0.09015682668359322 0 0 0.09015682668359322 0.0018031365336241834 -57.99247719595451)"  >
<linearGradient id="SVGID_22_339375" gradientUnits="userSpaceOnUse" gradientTransform="matrix(1 0 0 1 0 0)"  x1="2672.57" y1="1911.16" x2="3283.03" y2="2321.05">
<stop offset="0%" style="stop-color:rgb(0,0,255);stop-opacity: 1"/>
<stop offset="100%" style="stop-color:rgb(0,204,255);stop-opacity: 1"/>
</linearGradient>
<path style="stroke: none; stroke-width: 1; stroke-dasharray: none; stroke-linecap: butt; stroke-dashoffset: 0; stroke-linejoin: miter; stroke-miterlimit: 4; fill: url(#SVGID_22_339375); fill-rule: evenodd; opacity: 1;"  paint-order="stroke"  transform=" translate(-2540.025, -1896.755)" d="M 2710.46 1420.66 L 3184.92 1895.1200000000001 C 3184.92 2050.29 3131.44 2235.4 3025.6800000000003 2443.17 C 2576.4900000000002 2080.29 2183.9100000000003 1895.08 1895.1300000000003 1895.08 L 2369.55 1420.6599999999999 C 2463.3100000000004 1326.8999999999999 2616.7000000000003 1326.8999999999999 2710.46 1420.6599999999999 z" stroke-linecap="round" />
</g>
		<g transform="matrix(0.09015682668359322 0 0 0.09015682668359322 -57.99247719595445 -0.0018031365337094485)"  >
<linearGradient id="SVGID_23_339376" gradientUnits="userSpaceOnUse" gradientTransform="matrix(1 0 0 1 0 0)"  x1="1911.17" y1="2407.43" x2="2321.06" y2="1796.97">
<stop offset="0%" style="stop-color:rgb(0,0,255);stop-opacity: 1"/>
<stop offset="100%" style="stop-color:rgb(0,204,255);stop-opacity: 1"/>
</linearGradient>
<path style="stroke: none; stroke-width: 1; stroke-dasharray: none; stroke-linecap: butt; stroke-dashoffset: 0; stroke-linejoin: miter; stroke-miterlimit: 4; fill: url(#SVGID_23_339376); fill-rule: evenodd; opacity: 1;"  paint-order="stroke"  transform=" translate(-1896.7650000000003, -2539.975)" d="M 1420.67 2369.54 L 1895.13 1895.08 C 2050.3 1895.08 2235.41 1948.56 2443.1800000000003 2054.3199999999997 C 2080.3 2503.5099999999998 1895.0900000000001 2896.0899999999997 1895.0900000000001 3184.87 L 1420.67 2710.45 C 1326.91 2616.6899999999996 1326.91 2463.2999999999997 1420.67 2369.54 z" stroke-linecap="round" />
</g>
		<g transform="matrix(0.09015682668359322 0 0 0.09015682668359322 -0.0018031365336810268 57.99247719595451)"  >
<linearGradient id="SVGID_24_339377" gradientUnits="userSpaceOnUse" gradientTransform="matrix(1 0 0 1 0 0)"  x1="2407.44" y1="3168.83" x2="1796.98" y2="2758.94">
<stop offset="0%" style="stop-color:rgb(0,0,255);stop-opacity: 1"/>
<stop offset="100%" style="stop-color:rgb(0,204,255);stop-opacity: 1"/>
</linearGradient>
<path style="stroke: none; stroke-width: 1; stroke-dasharray: none; stroke-linecap: butt; stroke-dashoffset: 0; stroke-linejoin: miter; stroke-miterlimit: 4; fill: url(#SVGID_24_339377); fill-rule: evenodd; opacity: 1;"  paint-order="stroke"  transform=" translate(-2539.985, -3183.235)" d="M 2369.55 3659.33 L 1895.0900000000001 3184.87 C 1895.0900000000001 3029.7 1948.5700000000002 2844.59 2054.33 2636.8199999999997 C 2503.52 2999.7 2896.1 3184.91 3184.88 3184.91 L 2710.46 3659.33 C 2616.7 3753.09 2463.31 3753.09 2369.55 3659.33 z" stroke-linecap="round" />
</g>
		<g transform="matrix(0.09015682668359322 0 0 0.09015682668359322 57.99247719595451 0.0018031365335957616)"  >
<linearGradient id="SVGID_25_339378" gradientUnits="userSpaceOnUse" gradientTransform="matrix(1 0 0 1 0 0)"  x1="3168.84" y1="2672.56" x2="2758.95" y2="3283.02">
<stop offset="0%" style="stop-color:rgb(0,0,255);stop-opacity: 1"/>
<stop offset="100%" style="stop-color:rgb(0,204,255);stop-opacity: 1"/>
</linearGradient>
<path style="stroke: none; stroke-width: 1; stroke-dasharray: none; stroke-linecap: butt; stroke-dashoffset: 0; stroke-linejoin: miter; stroke-miterlimit: 4; fill: url(#SVGID_25_339378); fill-rule: evenodd; opacity: 1;"  paint-order="stroke"  transform=" translate(-3183.245, -2540.015)" d="M 3659.34 2710.45 L 3184.88 3184.91 C 3029.71 3184.91 2844.6000000000004 3131.43 2636.83 3025.67 C 2999.71 2576.48 3184.92 2183.9 3184.92 1895.1200000000001 L 3659.34 2369.54 C 3753.1000000000004 2463.3 3753.1000000000004 2616.69 3659.34 2710.45 z" stroke-linecap="round" />
</g>
</g>
</g>
<g transform="matrix(1.9211538461538462 0 0 1.9211538461538462 840.6972399933427 477.29998898294)" id="text-logo"  >
<g style=""  paint-order="stroke"   >
		<g transform="matrix(1 0 0 1 5.684342e-14 0)" id="text-logo-path-0"  >
<path style="stroke: none; stroke-width: 0; stroke-dasharray: none; stroke-linecap: butt; stroke-dashoffset: 0; stroke-linejoin: miter; stroke-miterlimit: 4; fill: rgb(0,0,255); fill-rule: nonzero; opacity: 1;"  paint-order="stroke"  transform=" translate(-182.6, 13.615)" d="M 13.14 0 L 3.24 0 L 3.24 -27.23 L 13.14 -27.23 Q 26.66 -27.23 26.66 -14.36 L 26.66 -14.36 Q 26.66 0 13.14 0 L 13.14 0 Z M 6.76 -24.38 L 6.76 -2.86 L 13.14 -2.86 Q 23.14 -2.86 23.14 -14.36 L 23.14 -14.36 Q 23.14 -24.38 13.14 -24.38 L 13.14 -24.38 L 6.76 -24.38 Z M 67.1 0 L 63.57 0 L 63.57 -27.23 L 67.1 -27.23 L 67.1 0 Z M 104.01 -14 L 104.01 -14 Q 104.01 -27.42 118.29 -27.42 L 118.29 -27.42 Q 122.39 -27.42 125.91 -26.28 L 125.91 -26.28 L 125.91 -23.23 Q 122.39 -24.57 118.67 -24.57 L 118.67 -24.57 Q 107.53 -24.57 107.53 -14 L 107.53 -14 Q 107.53 -2.67 118.5 -2.67 L 118.5 -2.67 Q 120.25 -2.67 122.39 -3.12 L 122.39 -3.12 L 122.39 -12.38 L 125.91 -12.38 L 125.91 -1.07 Q 122.61 0.19 118.81 0.19 L 118.81 0.19 Q 104.01 0.19 104.01 -14 Z M 163.81 0 L 160.16 0 L 171.71 -27.23 L 175.62 -27.23 L 187.23 0 L 183.33 0 L 179.81 -8.57 L 170.8 -8.57 L 171.77 -11.43 L 178.63 -11.43 L 173.54 -23.77 L 163.81 0 Z M 225.48 0 L 222.15 0 L 222.15 -27.23 L 225.67 -27.23 L 242.33 -5.29 L 242.33 -27.23 L 245.67 -27.23 L 245.67 0 L 242.14 0 L 225.48 -22.13 L 225.48 0 Z M 282.01 -14 L 282.01 -14 Q 282.01 -27.42 296.29 -27.42 L 296.29 -27.42 Q 300.38 -27.42 303.91 -26.28 L 303.91 -26.28 L 303.91 -23.23 Q 300.38 -24.57 296.67 -24.57 L 296.67 -24.57 Q 285.53 -24.57 285.53 -14 L 285.53 -14 Q 285.53 -2.67 296.67 -2.67 L 296.67 -2.67 Q 300.38 -2.67 303.91 -4 L 303.91 -4 L 303.91 -0.95 Q 300.38 0.19 296.29 0.19 L 296.29 0.19 Q 282.01 0.19 282.01 -14 Z M 348.04 -9.52 L 338.15 -27.23 L 342.06 -27.23 L 349.9 -13.01 L 357.86 -27.23 L 361.96 -27.23 L 351.56 -9.52 L 351.56 0 L 348.04 0 L 348.04 -9.52 Z" stroke-linecap="round" />
</g>
</g>
</g>
<g transform="matrix(1.9211538461538462 0 0 1.9211538461538462 838.3617810653077 558.8143605179744)" id="tagline-c7fe0680-61bb-40ba-af6d-0aa2507f92b0-logo"  >
<g style=""  paint-order="stroke"   >
		<g transform="matrix(1 0 0 1 0 0)" id="tagline-c7fe0680-61bb-40ba-af6d-0aa2507f92b0-logo-path-0"  >
<path style="stroke: none; stroke-width: 0; stroke-dasharray: none; stroke-linecap: butt; stroke-dashoffset: 0; stroke-linejoin: miter; stroke-miterlimit: 4; fill: rgb(0,98,255); fill-rule: nonzero; opacity: 1;"  paint-order="stroke"  transform=" translate(-207.575, 8.9)" d="M 7.75 0 L 1.91 0 L 1.91 -16.06 L 7.75 -16.06 Q 15.72 -16.06 15.72 -8.47 L 15.72 -8.47 Q 15.72 0 7.75 0 L 7.75 0 Z M 3.99 -14.38 L 3.99 -1.68 L 7.75 -1.68 Q 13.65 -1.68 13.65 -8.47 L 13.65 -8.47 Q 13.65 -14.38 7.75 -14.38 L 7.75 -14.38 L 3.99 -14.38 Z M 25.68 0 L 23.6 0 L 23.6 -16.06 L 25.68 -16.06 L 25.68 0 Z M 36.31 0 L 34.34 0 L 34.34 -16.06 L 36.42 -16.06 L 46.25 -3.12 L 46.25 -16.06 L 48.21 -16.06 L 48.21 0 L 46.13 0 L 36.31 -13.05 L 36.31 0 Z M 71.88 0 L 65.03 -16.06 L 67.22 -16.06 L 73.11 -2.16 L 78.84 -16.06 L 81 -16.06 L 74.18 0 L 71.88 0 Z M 90.11 0 L 88.04 0 L 88.04 -16.06 L 90.11 -16.06 L 90.11 0 Z M 97.99 -11.57 L 97.99 -11.57 Q 97.99 -16.17 104.45 -16.17 L 104.45 -16.17 Q 107.26 -16.17 109.67 -15.5 L 109.67 -15.5 L 109.67 -13.59 Q 107.26 -14.49 104.45 -14.49 L 104.45 -14.49 Q 100.07 -14.49 100.07 -11.57 L 100.07 -11.57 Q 100.07 -8.98 103.03 -8.98 L 103.03 -8.98 L 105.1 -8.98 Q 110.23 -8.98 110.23 -4.6 L 110.23 -4.6 Q 110.23 0.11 104.01 0.11 L 104.01 0.11 Q 101.08 0.11 98.55 -0.56 L 98.55 -0.56 L 98.55 -2.47 Q 101.08 -1.57 104.01 -1.57 L 104.01 -1.57 Q 108.15 -1.57 108.15 -4.6 L 108.15 -4.6 Q 108.15 -7.19 105.1 -7.19 L 105.1 -7.19 L 103.03 -7.19 Q 97.99 -7.19 97.99 -11.57 Z M 120.19 0 L 118.11 0 L 118.11 -16.06 L 120.19 -16.06 L 120.19 0 Z M 128.29 -8.01 L 128.29 -8.01 Q 128.29 -16.17 136.35 -16.17 L 136.35 -16.17 Q 144.29 -16.17 144.29 -8.01 L 144.29 -8.01 Q 144.29 0.11 136.35 0.11 L 136.35 0.11 Q 128.29 0.11 128.29 -8.01 Z M 130.48 -8.07 L 130.48 -8.07 Q 130.48 -1.57 136.35 -1.57 L 136.35 -1.57 Q 142.1 -1.57 142.1 -8.07 L 142.1 -8.07 Q 142.1 -14.49 136.35 -14.49 L 136.35 -14.49 Q 130.48 -14.49 130.48 -8.07 Z M 154.02 0 L 152.06 0 L 152.06 -16.06 L 154.13 -16.06 L 163.96 -3.12 L 163.96 -16.06 L 165.93 -16.06 L 165.93 0 L 163.85 0 L 154.02 -13.05 L 154.02 0 Z M 174.7 2.81 L 172.62 2.81 L 174.31 -2.08 L 176.39 -2.08 L 174.7 2.81 Z M 198.43 0 L 191.58 -16.06 L 193.77 -16.06 L 199.65 -2.16 L 205.39 -16.06 L 207.55 -16.06 L 200.73 0 L 198.43 0 Z M 213.09 0 L 210.93 0 L 217.75 -16.06 L 217.78 -16.06 Q 216.38 -16.51 216.38 -18.25 L 216.38 -18.25 Q 216.38 -20.61 218.94 -20.61 L 218.94 -20.61 Q 221.46 -20.61 221.46 -18.25 L 221.46 -18.25 Q 221.46 -16.5 220.05 -16.05 L 220.05 -16.05 L 226.9 0 L 224.6 0 L 222.52 -5.05 L 217.21 -5.05 L 217.78 -6.74 L 221.83 -6.74 L 218.83 -14.02 L 213.09 0 Z M 217.39 -18.27 L 217.39 -18.27 Q 217.39 -16.73 218.94 -16.73 L 218.94 -16.73 Q 220.45 -16.73 220.45 -18.27 L 220.45 -18.27 Q 220.45 -19.78 218.94 -19.78 L 218.94 -19.78 Q 217.39 -19.78 217.39 -18.27 Z M 235.68 0 L 233.6 0 L 233.6 -16.06 L 240.45 -16.06 Q 245.03 -16.06 245.03 -12.21 L 245.03 -12.21 Q 245.03 -9.07 240.55 -7.57 L 240.55 -7.57 L 246.07 0 L 243.33 0 L 238.22 -7.22 L 238.22 -8.58 Q 242.82 -9.31 242.82 -12.12 L 242.82 -12.12 Q 242.82 -14.34 240.26 -14.34 L 240.26 -14.34 L 235.68 -14.34 L 235.68 0 Z M 256.47 -14.38 L 251.42 -14.38 L 251.42 -16.06 L 263.6 -16.06 L 263.6 -14.38 L 258.55 -14.38 L 258.55 0 L 256.47 0 L 256.47 -14.38 Z M 280.59 -6.2 L 280.59 -6.2 L 280.59 -16.06 L 282.67 -16.06 L 282.67 -6.2 Q 282.67 -1.57 287.27 -1.57 L 287.27 -1.57 Q 291.88 -1.57 291.88 -6.2 L 291.88 -6.2 L 291.88 -16.06 L 293.96 -16.06 L 293.96 -6.2 Q 293.96 0.11 287.27 0.11 L 287.27 0.11 Q 280.59 0.11 280.59 -6.2 Z M 304.25 0 L 302.17 0 L 302.17 -16.06 L 308.68 -16.06 Q 313.6 -16.06 313.6 -11.76 L 313.6 -11.76 Q 313.6 -7.08 306.88 -6.04 L 306.88 -6.04 L 306.45 -7.79 Q 311.39 -8.52 311.39 -11.67 L 311.39 -11.67 Q 311.39 -14.34 308.49 -14.34 L 308.49 -14.34 L 304.25 -14.34 L 304.25 0 Z M 322.94 0 L 320.86 0 L 320.86 -16.06 L 327.38 -16.06 Q 332.3 -16.06 332.3 -11.76 L 332.3 -11.76 Q 332.3 -7.08 325.57 -6.04 L 325.57 -6.04 L 325.14 -7.79 Q 330.08 -8.52 330.08 -11.67 L 330.08 -11.67 Q 330.08 -14.34 327.19 -14.34 L 327.19 -14.34 L 322.94 -14.34 L 322.94 0 Z M 345.39 0 L 339.56 0 L 339.56 -16.06 L 345.39 -16.06 Q 353.37 -16.06 353.37 -8.47 L 353.37 -8.47 Q 353.37 0 345.39 0 L 345.39 0 Z M 341.63 -14.38 L 341.63 -1.68 L 345.39 -1.68 Q 351.29 -1.68 351.29 -8.47 L 351.29 -8.47 Q 351.29 -14.38 345.39 -14.38 L 345.39 -14.38 L 341.63 -14.38 Z M 362.99 0 L 360.91 0 L 360.91 -16.06 L 367.76 -16.06 Q 372.34 -16.06 372.34 -12.21 L 372.34 -12.21 Q 372.34 -9.07 367.86 -7.57 L 367.86 -7.57 L 373.37 0 L 370.63 0 L 365.52 -7.22 L 365.52 -8.58 Q 370.13 -9.31 370.13 -12.12 L 370.13 -12.12 Q 370.13 -14.34 367.57 -14.34 L 367.57 -14.34 L 362.99 -14.34 L 362.99 0 Z M 380.6 0 L 378.44 0 L 385.26 -16.06 L 387.56 -16.06 L 394.41 0 L 392.11 0 L 390.03 -5.05 L 384.72 -5.05 L 385.29 -6.74 L 389.34 -6.74 L 386.34 -14.02 L 380.6 0 Z M 400.33 -8.25 L 400.33 -8.25 Q 400.33 -16.17 408.75 -16.17 L 408.75 -16.17 Q 411.16 -16.17 413.24 -15.5 L 413.24 -15.5 L 413.24 -13.7 Q 411.16 -14.49 408.97 -14.49 L 408.97 -14.49 Q 402.4 -14.49 402.4 -8.25 L 402.4 -8.25 Q 402.4 -1.57 408.87 -1.57 L 408.87 -1.57 Q 409.91 -1.57 411.16 -1.84 L 411.16 -1.84 L 411.16 -7.3 L 413.24 -7.3 L 413.24 -0.63 Q 411.3 0.11 409.05 0.11 L 409.05 0.11 Q 400.33 0.11 400.33 -8.25 Z" stroke-linecap="round" />
</g>
</g>
</g>
</svg>